<svg xmlns="http://www.w3.org/2000/svg" viewBox="0 0 256 256">
  <rect x="16" y="16" width="224" height="224" rx="56" fill="#3b82f6"/>
  <g transform="translate(48, 48) scale(6.666)">
    <path d="M6 22V6a2 2 0 0 1 2-2h8a2 2 0 0 1 2 2v16" fill="none" stroke="#ffffff" stroke-width="2" stroke-linecap="round" stroke-linejoin="round"/>
    <path d="M6 12H4a2 2 0 0 0-2 2v8h4" fill="none" stroke="#ffffff" stroke-width="2" stroke-linecap="round" stroke-linejoin="round"/>
    <path d="M18 12h2a2 2 0 0 1 2 2v8h-4" fill="none" stroke="#ffffff" stroke-width="2" stroke-linecap="round" stroke-linejoin="round"/>
    <path d="M10 9h4" fill="none" stroke="#ffffff" stroke-width="2" stroke-linecap="round" stroke-linejoin="round"/>
    <path d="M10 14h4" fill="none" stroke="#ffffff" stroke-width="2" stroke-linecap="round" stroke-linejoin="round"/>
    <path d="M10 22v-3a2 2 0 0 1 4 0v3" fill="none" stroke="#ffffff" stroke-width="2" stroke-linecap="round" stroke-linejoin="round"/>
    <path d="M2 22h20" fill="none" stroke="#ffffff" stroke-width="2" stroke-linecap="round" stroke-linejoin="round"/>
  </g>
</svg>
